# AST/ASF file generated using VICON BodyLanguage
# -----------------------------------------------
:version 1.10
:name VICON
:units
  mass 1.0
  length 0.45
  angle deg
:documentation
   .ast/.asf automatically generated from VICON data using
   VICON BodyBuilder and BodyLanguage model FoxedUp or BRILLIANT.MOD
:root
   order TX TY TZ RX RY RZ
   axis XYZ
   position 0 0 0  
   orientation 0 0 0 
:bonedata
  begin
     id 1 
     name lhipjoint
     direction 0.650112 -0.723553 0.232005 
     length 2.45805 
     axis 0 0 0  XYZ
  end
  begin
     id 2 
     name lfemur
     direction 0.34202 -0.939693 0  
     length 7.00073  
     axis 0 0 20  XYZ
    dof rx ry rz
    limits (-160.0 20.0)
           (-70.0 70.0)
           (-60.0 70.0)
  end
  begin
     id 3 
     name ltibia
     direction 0.34202 -0.939693 0   
     length 7.8748   
     axis 0 0 20   XYZ
    dof rx
    limits (-10.0 170.0)
  end
  begin
     id 4 
     name lfoot
     direction 0.0542825 -0.14914 0.987325   
     length 1.75978   
     axis -90 7.62852e-016 20   XYZ
    dof rx rz
    limits (-45.0 90.0)
           (-70.0 20.0)
  end
  begin
     id 5 
     name ltoes
     direction 1.53509e-011 -4.21906e-011 1   
     length 0.893912   
     axis -90 7.62852e-016 20   XYZ
    dof rx
    limits (-90.0 20.0)
  end
  begin
     id 6 
     name rhipjoint
     direction -0.637897 -0.733345 0.235145   
     length 2.42522  
     axis 0 0 0  XYZ 
  end
  begin
     id 7 
     name rfemur
     direction -0.34202 -0.939693 0   
     length 7.02549   
     axis 0 0 -20   XYZ
    dof rx ry rz
    limits (-160.0 20.0)
           (-70.0 70.0)
           (-70.0 60.0)
  end
  begin
     id 8 
     name rtibia
     direction -0.34202 -0.939693 0   
     length 7.71512   
     axis 0 0 -20   XYZ
    dof rx
    limits (-10.0 170.0)
 end
 begin
     id 9 
     name rfoot
     direction -0.0822618 -0.226012 0.970645   
     length 1.90014  
     axis -90 -7.62852e-016 -20   XYZ
    dof rx rz
    limits (-45.0 90.0)
           (-20.0 70.0)
  end
  begin
     id 10 
     name rtoes
     direction -1.53542e-011 -4.21872e-011 1   
     length 0.957341   
     axis -90 -7.62852e-016 -20   XYZ
    dof rx
    limits (-90.0 20.0)
  end
  begin
     id 11 
     name lowerback
     direction -0.0022947 0.999774 -0.0211557   
     length 1.89909   
     axis 0 0 0   XYZ
    dof rx ry rz
    limits (-20.0 45.0)
           (-30.0 30.0)
           (-30.0 30.0)
  end
  begin
     id 12 
     name upperback
     direction 0.0107737 0.998635 0.0511027   
     length 1.8853   
     axis 0 0 0   XYZ
    dof rx ry rz
    limits (-20.0 45.0)
           (-30.0 30.0)
           (-30.0 30.0)
  end
  begin
     id 13 
     name thorax
     direction 0.011824 0.998136 0.0598754   
     length 1.88911   
     axis 0 0 0   XYZ
    dof rx ry rz
    limits (-20.0 45.0)
           (-30.0 30.0)
           (-30.0 30.0)
  end
  begin
     id 14 
     name lowerneck
     direction -0.0685355 0.990319 0.120714   
     length 1.91222   
     axis 0 0 0   XYZ
    dof rx ry rz
    limits (-20.0 45.0)
           (-30.0 30.0)
           (-30.0 30.0)
  end
  begin
     id 15 
     name upperneck
     direction 0.0886204 0.955665 -0.280805   
     length 1.92526   
     axis 0 0 0   XYZ
    dof rx ry rz
    limits (-20.0 45.0)
           (-30.0 30.0)
           (-30.0 30.0)
  end
  begin
     id 16
     name head
     direction 0.0233423 0.993502 -0.111393  
     length 1.96056  
     axis 0 0 0   XYZ
    dof rx ry rz
    limits (-20.0 45.0)
           (-30.0 30.0)
           (-30.0 30.0)
  end
  begin
     id 17 
     name lclavicle
     direction 0.941873 0.32922 0.0670041  
     length 3.31705  
     axis 0 0 0   XYZ
    dof ry rz
    limits (-20.0 10.0)
           (0.0 20.0)
  end
  begin
     id 18 
     name lhumerus
     direction 1 -4.4898e-011 3.38707e-028   
     length 5.29277   
     axis 180 -30 -90   XYZ
    dof rx ry rz
    limits (-60.0 90.0)
           (-90.0 90.0)
           (-90.0 90.0)
  end
  begin
     id 19
     name lradius
     direction 1 -4.48952e-011 1.63213e-028   
     length 2.85226   
     axis 180 -30 -90   XYZ
    dof rx
    limits (-10.0 170.0)
  end
  begin
     id 20
     name lwrist
     direction 1 -4.49001e-011 1.27856e-027   
     length 1.42613   
     axis -1.61767e-015 90 90   XYZ
    dof ry
    limits (-180.0 0.0)
 end
  begin
     id 21 
     name lhand
     direction 1 -4.48976e-011 2.55931e-027   
     length 0.602097   
     axis -1.63363e-015 90 90   XYZ
    dof rx rz
    limits (-90.0 90.0)
           (-45.0 45.0)
  end
  begin
     id 22 
     name lfingers
     direction 1 -4.48986e-011 5.11684e-027   
     length 0.485426   
     axis -3.26723e-015 90 90   XYZ
    dof rx
    limits (0.0 90.0)
  end
  begin
     id 23
     name lthumb
     direction 0.707107 -6.34915e-011 0.707107   
     length 0.696978   
     axis -90 45 -2.25915e-014   XYZ
    dof rx rz
    limits (-45.0 45.0)
           (-45.0 45.0)
  end
  begin
     id 24 
     name rclavicle
     direction -0.939974 0.327078 0.0973096   
     length 3.10337  
     axis 0 0 0   XYZ 
    dof ry rz
    limits (-10.0 20.0)
           (-20.0 0.0)
  end
  begin
     id 25 
     name rhumerus
     direction -1 -4.48975e-011 1.83745e-027  
     length 5.13304   
     axis 180 30 90   XYZ
    dof rx ry rz
    limits (-90.0 60.0)
           (-90.0 90.0)
           (-90.0 90.0)
  end
  begin
     id 26 
     name rradius
     direction -1 -4.48977e-011 7.1775e-029   
     length 2.74305   
     axis 180 30 90   XYZ
    dof rx
    limits (-10.0 170.0)
  end
  begin
     id 27 
     name rwrist
     direction -1 -4.48977e-011 1.27963e-027   
     length 1.37152   
     axis -1.61767e-015 -90 -90   XYZ
    dof ry
    limits (-180.0 0.0)
  end
  begin
     id 28
     name rhand
     direction -1 -4.4888e-011 2.56782e-027   
     length 0.767976   
     axis -1.63363e-015 -90 -90   XYZ
    dof rx rz
    limits (-90.0 90.0)
           (-45.0 45.0)
  end
  begin
     id 29
     name rfingers
     direction -1 -4.48947e-011 5.12384e-027   
     length 0.619162   
     axis -3.26723e-015 -90 -90   XYZ
    dof rx
    limits (0.0 90.0)
  end
  begin
     id 30
     name rthumb
     direction -0.707107 -6.34857e-011 0.707107   
     length 0.888997   
     axis -90 -45 2.25915e-014   XYZ
    dof rx rz
    limits (-45.0 45.0)
           (-45.0 45.0)
  end
:hierarchy
  begin
    root lhipjoint rhipjoint lowerback
    lhipjoint lfemur
    lfemur ltibia
    ltibia lfoot
    lfoot ltoes
    rhipjoint rfemur
    rfemur rtibia
    rtibia rfoot
    rfoot rtoes
    lowerback upperback
    upperback thorax
    thorax lowerneck lclavicle rclavicle
    lowerneck upperneck
    upperneck head
    lclavicle lhumerus
    lhumerus lradius
    lradius lwrist
    lwrist lhand lthumb
    lhand lfingers
    rclavicle rhumerus
    rhumerus rradius
    rradius rwrist
    rwrist rhand rthumb
    rhand rfingers
  end

#!OML:ASF F:\VICON\USERDATA\INSTALL\rory3\rory3.ASF
:FULLY-SPECIFIED
:DEGREES
983
root 0.419192 16.7058 -0.464647 -1.7285 42.3354 -3.35736
lowerback -0.344191 0.966851 0.279562
upperback -6.28428 1.67574 4.87379
thorax -6.50087 1.02417 4.85993
lowerneck -7.90002 -10.2779 -18.6136
upperneck 22.5336 -15.711 18.3617
head 11.6807 -7.05654 7.77694
rclavicle 1.41137e-014 -3.18055e-015
rhumerus -22.9748 4.5287 -96.9424
rradius 122.12
rwrist 34.32
rhand 41.7446 7.60924
rfingers 7.12502
rthumb 63.8246 -1.41058
lclavicle 1.41137e-014 -3.18055e-015
lhumerus 0.0610861 -21.1114 97.1906
lradius 116.022
lwrist -15.2386
lhand 35.0279 43.596
lfingers 7.12502
lthumb 58.1615 59.1716
rfemur -5.28272 -19.5823 21.63
rtibia 33.3516
rfoot -26.3952 -23.4626
rtoes -4.86206
lfemur -23.6191 -29.1324 -15.2675
ltibia 40.5993
lfoot -17.3521 -15.2919
ltoes -10.3062
984
root 0.434941 16.7218 -0.467469 -1.57209 41.4361 -3.17473
lowerback -0.184064 0.911663 2.09624
upperback -6.40731 1.58299 3.52866
thorax -6.61252 0.822633 2.41822
lowerneck -8.05268 -10.225 -17.1841
upperneck 22.978 -16.0418 18.7504
head 11.8609 -7.02782 7.65267
rclavicle 3.10104e-014 4.77083e-015
rhumerus -23.3812 3.30006 -99.1084
rradius 122.316
rwrist 34.5438
rhand 41.6652 7.38203
rfingers 7.12502
rthumb 63.7604 -1.73239
lclavicle 3.10104e-014 4.77083e-015
lhumerus 0.723079 -21.7162 94.7046
lradius 116.307
lwrist -15.1345
lhand 35.0027 43.3049
lfingers 7.12502
lthumb 58.1395 58.9005
rfemur -5.22983 -19.0996 21.4076
rtibia 33.1117
rfoot -26.0222 -23.1656
rtoes -5.61452
lfemur -23.1974 -28.8875 -15.4977
ltibia 40.2656
lfoot -17.4605 -14.6651
ltoes -10.3459
985
root 0.453073 16.74 -0.468149 -1.22472 40.4997 -2.87348
lowerback -0.500783 0.887694 2.14075
upperback -6.41453 1.5293 3.41216
thorax -6.43044 0.789266 2.27831
lowerneck -7.91481 -10.2423 -17.0221
upperneck 23.068 -16.107 18.6391
head 11.8533 -7.06118 7.57666
rclavicle -3.71727e-014 -3.18055e-015
rhumerus -23.6011 3.01023 -99.1754
rradius 122.597
rwrist 34.4219
rhand 41.6893 7.17726
rfingers 7.12502
rthumb 63.7799 -1.90852
lclavicle -3.71727e-014 -3.18055e-015
lhumerus 1.26327 -21.7204 94.3585
lradius 116.446
lwrist -14.8922
lhand 34.3777 43.2674
lfingers 7.12502
lthumb 57.5937 59.3479
rfemur -5.27018 -18.5972 21.1172
rtibia 32.8323
rfoot -25.7361 -22.8534
rtoes -6.09696
lfemur -22.871 -28.589 -15.7774
ltibia 39.8919
lfoot -17.4816 -14.0482
ltoes -10.2929
986
root 0.463969 16.7577 -0.474505 -0.893788 39.4056 -2.51571
lowerback -0.66411 0.821035 1.57335
upperback -6.39082 1.43268 3.74012
thorax -6.33251 0.783997 2.94743
lowerneck -7.76807 -10.2144 -17.4155
upperneck 23.0681 -15.9658 18.412
head 11.8043 -7.06634 7.58125
rclavicle -7.07673e-014 -3.57812e-014
rhumerus -23.6086 3.35706 -98.6605
rradius 122.79
rwrist 34.221
rhand 41.7954 7.20592
rfingers 7.12502
rthumb 63.8657 -1.75304
lclavicle -7.07673e-014 -3.57812e-014
lhumerus 1.62447 -21.0103 94.7954
lradius 116.733
lwrist -15.0296
lhand 34.073 43.1699
lfingers 7.12502
lthumb 57.3268 59.4804
rfemur -5.33258 -17.8593 20.8181
rtibia 32.5407
rfoot -25.3564 -22.6408
rtoes -6.5503
lfemur -22.4995 -28.1825 -16.1026
ltibia 39.4803
lfoot -17.3736 -13.3749
ltoes -9.72623
987
root 0.467966 16.7755 -0.484492 -0.780112 38.2064 -2.41354
lowerback -0.711855 0.779428 0.700304
upperback -6.29962 1.38679 4.4526
thorax -6.25246 0.833701 4.19304
lowerneck -7.80603 -10.2532 -18.2527
upperneck 23.1865 -15.8194 18.1121
head 11.8748 -7.10341 7.63086
rclavicle 2.96189e-014 -1.74931e-014
rhumerus -23.2792 4.11052 -97.5842
rradius 122.876
rwrist 33.8527
rhand 41.881 7.22029
rfingers 7.12502
rthumb 63.9349 -1.63571
lclavicle 2.96189e-014 -1.74931e-014
lhumerus 1.90897 -19.8757 95.8258
lradius 117.177
lwrist -15.8812
lhand 34.8791 42.7384
lfingers 7.12502
lthumb 58.0318 58.4313
rfemur -5.40599 -16.9547 20.7578
rtibia 32.2542
rfoot -25.0635 -22.3893
rtoes -6.62054
lfemur -22.0887 -27.5998 -16.2025
ltibia 39.0424
lfoot -17.3212 -12.8545
ltoes -9.23555
988
root 0.474435 16.7945 -0.493226 -0.681999 37.0208 -2.36227
lowerback -0.815429 0.809766 -0.148728
upperback -6.21898 1.43504 5.10538
thorax -6.15984 0.926402 5.36766
lowerneck -7.71329 -10.3802 -18.9999
upperneck 23.2131 -15.8151 17.7805
head 11.9042 -7.2067 7.62386
rclavicle 1.23246e-014 3.49861e-014
rhumerus -22.8284 4.76578 -96.3787
rradius 123.018
rwrist 33.4773
rhand 41.7928 7.00464
rfingers 7.12502
rthumb 63.8636 -1.95745
lclavicle 1.23246e-014 3.49861e-014
lhumerus 2.01714 -19.1126 97.0244
lradius 117.376
lwrist -16.2254
lhand 35.5328 42.4283
lfingers 7.12502
lthumb 58.6004 57.5985
rfemur -5.50645 -16.1042 20.7239
rtibia 32.0535
rfoot -24.8594 -22.0521
rtoes -6.29017
lfemur -21.6434 -26.9615 -16.2712
ltibia 38.5167
lfoot -17.2434 -12.4251
ltoes -8.91625
989
root 0.488356 16.8139 -0.496392 -0.468493 35.8345 -1.95202
lowerback -0.916351 0.758574 -1.06105
upperback -6.12041 1.35979 5.57222
thorax -6.0347 0.951102 6.39503
lowerneck -7.68946 -10.4177 -19.6385
upperneck 23.2617 -15.6783 17.4079
head 11.9109 -7.24088 7.6043
rclavicle -7.31528e-014 -3.33958e-014
rhumerus -22.3383 5.52984 -95.3416
rradius 123.205
rwrist 33.1032
rhand 41.6448 6.75273
rfingers 7.12502
rthumb 63.7438 -2.38593
lclavicle -7.31528e-014 -3.33958e-014
lhumerus 1.85032 -18.3598 98.1489
lradius 117.441
lwrist -16.1861
lhand 35.7303 42.4663
lfingers 7.12502
lthumb 58.7716 57.4746
rfemur -5.48205 -15.3878 20.2808
rtibia 31.9415
rfoot -24.6268 -21.7308
rtoes -6.51325
lfemur -20.9635 -26.3618 -16.771
ltibia 37.9055
lfoot -17.1894 -11.8803
ltoes -9.04189
990
root 0.504814 16.8322 -0.495624 0.158795 34.5869 -0.923928
lowerback -1.11379 0.553339 -2.06418
upperback -6.00307 1.05309 5.7129
thorax -5.78961 0.845374 7.13948
lowerneck -7.99438 -10.3269 -20.3133
upperneck 23.5267 -15.3698 17.2312
head 12.053 -7.16751 7.70404
rclavicle 2.18663e-014 -1.59028e-014
rhumerus -21.6687 6.54445 -94.792
rradius 123.331
rwrist 32.7935
rhand 41.1513 6.64455
rfingers 7.12502
rthumb 63.3424 -3.07105
lclavicle 2.18663e-014 -1.59028e-014
lhumerus 1.55052 -17.4111 98.8179
lradius 117.606
lwrist -16.328
lhand 35.2981 42.7513
lfingers 7.12502
lthumb 58.3965 58.1115
rfemur -5.58252 -14.7059 19.2427
rtibia 31.9222
rfoot -24.4339 -21.2455
rtoes -7.43365
lfemur -20.2818 -25.7948 -17.8266
ltibia 37.2273
lfoot -17.1428 -11.2378
ltoes -9.0644
991
root 0.518032 16.8495 -0.499472 0.772137 33.2689 -0.0448236
lowerback -1.18147 0.378427 -1.66263
upperback -5.97435 0.772585 4.9063
thorax -5.6468 0.647071 6.04823
lowerneck -8.49512 -10.225 -19.9102
upperneck 23.9253 -15.2977 17.3202
head 12.2647 -7.06937 7.69057
rclavicle 4.41302e-014 1.90833e-014
rhumerus -20.8535 6.94192 -95.6763
rradius 123.474
rwrist 32.737
rhand 40.8542 6.62431
rfingers 7.12502
rthumb 63.0994 -3.42994
lclavicle 4.41302e-014 1.90833e-014
lhumerus 1.06146 -17.1035 98.1676
lradius 117.799
lwrist -16.4347
lhand 34.7245 42.8491
lfingers 7.12502
lthumb 57.8969 58.6627
rfemur -5.88358 -13.9599 18.3616
rtibia 31.9558
rfoot -24.2507 -20.7895
rtoes -8.11376
lfemur -19.7685 -25.1307 -18.689
ltibia 36.559
lfoot -17.0927 -10.5934
ltoes -9.06725
